<mxfile host="app.diagrams.net" modified="2022-05-04T02:57:32.516Z" agent="5.0 (Windows NT 10.0; Win64; x64) AppleWebKit/537.36 (KHTML, like Gecko) Chrome/100.0.4896.127 Safari/537.36" etag="kT1wlEOkgPQM_Wy9x31h" version="17.5.0" type="github">
  <diagram id="YVB-pM6c-rRBXV8MDC0e" name="第 1 页">
    <mxGraphModel dx="782" dy="436" grid="1" gridSize="10" guides="1" tooltips="1" connect="1" arrows="1" fold="1" page="1" pageScale="1" pageWidth="827" pageHeight="1169" math="0" shadow="0">
      <root>
        <mxCell id="0" />
        <mxCell id="1" parent="0" />
        <mxCell id="9BZ9REHOYVfvkjWrIPJj-9" style="edgeStyle=orthogonalEdgeStyle;rounded=0;orthogonalLoop=1;jettySize=auto;html=1;exitX=0.5;exitY=1;exitDx=0;exitDy=0;entryX=0.5;entryY=0;entryDx=0;entryDy=0;fontFamily=Helvetica;" edge="1" parent="1" source="9BZ9REHOYVfvkjWrIPJj-3" target="9BZ9REHOYVfvkjWrIPJj-7">
          <mxGeometry relative="1" as="geometry" />
        </mxCell>
        <mxCell id="9BZ9REHOYVfvkjWrIPJj-3" value="Pool,/2" style="text;html=1;strokeColor=none;fillColor=none;align=center;verticalAlign=middle;whiteSpace=wrap;rounded=0;fontFamily=Helvetica;rotation=-90;" vertex="1" parent="1">
          <mxGeometry x="150" y="153.75" width="60" height="30" as="geometry" />
        </mxCell>
        <mxCell id="9BZ9REHOYVfvkjWrIPJj-5" style="edgeStyle=orthogonalEdgeStyle;rounded=0;orthogonalLoop=1;jettySize=auto;html=1;entryX=0.5;entryY=0;entryDx=0;entryDy=0;fontFamily=Helvetica;" edge="1" parent="1" source="9BZ9REHOYVfvkjWrIPJj-4" target="9BZ9REHOYVfvkjWrIPJj-3">
          <mxGeometry relative="1" as="geometry" />
        </mxCell>
        <mxCell id="9BZ9REHOYVfvkjWrIPJj-4" value="7x7 conv,64, /2" style="rounded=0;whiteSpace=wrap;html=1;fontFamily=Helvetica;rotation=-90;fillColor=#f8cecc;strokeColor=#b85450;" vertex="1" parent="1">
          <mxGeometry x="62.5" y="157.5" width="127.5" height="22.5" as="geometry" />
        </mxCell>
        <mxCell id="9BZ9REHOYVfvkjWrIPJj-11" style="edgeStyle=orthogonalEdgeStyle;rounded=0;orthogonalLoop=1;jettySize=auto;html=1;exitX=0.5;exitY=1;exitDx=0;exitDy=0;entryX=0.5;entryY=0;entryDx=0;entryDy=0;fontFamily=Helvetica;" edge="1" parent="1" source="9BZ9REHOYVfvkjWrIPJj-7" target="9BZ9REHOYVfvkjWrIPJj-10">
          <mxGeometry relative="1" as="geometry" />
        </mxCell>
        <mxCell id="9BZ9REHOYVfvkjWrIPJj-7" value="3x3 conv,64" style="rounded=0;whiteSpace=wrap;html=1;fontFamily=Helvetica;rotation=-90;fillColor=#ffe6cc;strokeColor=#d79b00;" vertex="1" parent="1">
          <mxGeometry x="160" y="157.5" width="127.5" height="22.5" as="geometry" />
        </mxCell>
        <mxCell id="9BZ9REHOYVfvkjWrIPJj-18" style="edgeStyle=orthogonalEdgeStyle;rounded=0;orthogonalLoop=1;jettySize=auto;html=1;exitX=0.5;exitY=1;exitDx=0;exitDy=0;entryX=0.5;entryY=0;entryDx=0;entryDy=0;fontFamily=Helvetica;" edge="1" parent="1" source="9BZ9REHOYVfvkjWrIPJj-10" target="9BZ9REHOYVfvkjWrIPJj-13">
          <mxGeometry relative="1" as="geometry" />
        </mxCell>
        <mxCell id="9BZ9REHOYVfvkjWrIPJj-10" value="3x3 conv,64" style="rounded=0;whiteSpace=wrap;html=1;fontFamily=Helvetica;rotation=-90;fillColor=#ffe6cc;strokeColor=#d79b00;" vertex="1" parent="1">
          <mxGeometry x="200" y="157.5" width="127.5" height="22.5" as="geometry" />
        </mxCell>
        <mxCell id="9BZ9REHOYVfvkjWrIPJj-12" style="edgeStyle=orthogonalEdgeStyle;rounded=0;orthogonalLoop=1;jettySize=auto;html=1;exitX=0.5;exitY=1;exitDx=0;exitDy=0;entryX=0.5;entryY=0;entryDx=0;entryDy=0;fontFamily=Helvetica;" edge="1" parent="1" source="9BZ9REHOYVfvkjWrIPJj-13" target="9BZ9REHOYVfvkjWrIPJj-14">
          <mxGeometry relative="1" as="geometry" />
        </mxCell>
        <mxCell id="9BZ9REHOYVfvkjWrIPJj-13" value="3x3 conv,64" style="rounded=0;whiteSpace=wrap;html=1;fontFamily=Helvetica;rotation=-90;fillColor=#ffe6cc;strokeColor=#d79b00;" vertex="1" parent="1">
          <mxGeometry x="240" y="157.5" width="127.5" height="22.5" as="geometry" />
        </mxCell>
        <mxCell id="9BZ9REHOYVfvkjWrIPJj-19" style="edgeStyle=orthogonalEdgeStyle;rounded=0;orthogonalLoop=1;jettySize=auto;html=1;exitX=0.5;exitY=1;exitDx=0;exitDy=0;entryX=0.5;entryY=0;entryDx=0;entryDy=0;fontFamily=Helvetica;" edge="1" parent="1" source="9BZ9REHOYVfvkjWrIPJj-14" target="9BZ9REHOYVfvkjWrIPJj-16">
          <mxGeometry relative="1" as="geometry" />
        </mxCell>
        <mxCell id="9BZ9REHOYVfvkjWrIPJj-14" value="3x3 conv,64" style="rounded=0;whiteSpace=wrap;html=1;fontFamily=Helvetica;rotation=-90;fillColor=#ffe6cc;strokeColor=#d79b00;" vertex="1" parent="1">
          <mxGeometry x="280" y="157.5" width="127.5" height="22.5" as="geometry" />
        </mxCell>
        <mxCell id="9BZ9REHOYVfvkjWrIPJj-15" style="edgeStyle=orthogonalEdgeStyle;rounded=0;orthogonalLoop=1;jettySize=auto;html=1;exitX=0.5;exitY=1;exitDx=0;exitDy=0;entryX=0.5;entryY=0;entryDx=0;entryDy=0;fontFamily=Helvetica;" edge="1" parent="1" source="9BZ9REHOYVfvkjWrIPJj-16" target="9BZ9REHOYVfvkjWrIPJj-17">
          <mxGeometry relative="1" as="geometry" />
        </mxCell>
        <mxCell id="9BZ9REHOYVfvkjWrIPJj-16" value="3x3 conv,64" style="rounded=0;whiteSpace=wrap;html=1;fontFamily=Helvetica;rotation=-90;fillColor=#ffe6cc;strokeColor=#d79b00;" vertex="1" parent="1">
          <mxGeometry x="320" y="157.5" width="127.5" height="22.5" as="geometry" />
        </mxCell>
        <mxCell id="9BZ9REHOYVfvkjWrIPJj-24" style="edgeStyle=orthogonalEdgeStyle;rounded=0;orthogonalLoop=1;jettySize=auto;html=1;exitX=0.5;exitY=1;exitDx=0;exitDy=0;fontFamily=Helvetica;" edge="1" parent="1" source="9BZ9REHOYVfvkjWrIPJj-17" target="9BZ9REHOYVfvkjWrIPJj-22">
          <mxGeometry relative="1" as="geometry">
            <mxPoint x="450" y="169" as="targetPoint" />
          </mxGeometry>
        </mxCell>
        <mxCell id="9BZ9REHOYVfvkjWrIPJj-17" value="3x3 conv,64" style="rounded=0;whiteSpace=wrap;html=1;fontFamily=Helvetica;rotation=-90;fillColor=#ffe6cc;strokeColor=#d79b00;" vertex="1" parent="1">
          <mxGeometry x="360" y="157.5" width="127.5" height="22.5" as="geometry" />
        </mxCell>
        <mxCell id="9BZ9REHOYVfvkjWrIPJj-21" value="" style="edgeStyle=orthogonalEdgeStyle;rounded=0;orthogonalLoop=1;jettySize=auto;html=1;fontFamily=Helvetica;" edge="1" parent="1" source="9BZ9REHOYVfvkjWrIPJj-20" target="9BZ9REHOYVfvkjWrIPJj-4">
          <mxGeometry relative="1" as="geometry" />
        </mxCell>
        <mxCell id="9BZ9REHOYVfvkjWrIPJj-20" value="Image&lt;br&gt;" style="text;html=1;strokeColor=none;fillColor=none;align=center;verticalAlign=middle;whiteSpace=wrap;rounded=0;fontFamily=Helvetica;rotation=-90;" vertex="1" parent="1">
          <mxGeometry x="20" y="153.75" width="60" height="30" as="geometry" />
        </mxCell>
        <mxCell id="9BZ9REHOYVfvkjWrIPJj-25" style="edgeStyle=orthogonalEdgeStyle;rounded=0;orthogonalLoop=1;jettySize=auto;html=1;exitX=0.5;exitY=1;exitDx=0;exitDy=0;entryX=0.5;entryY=0;entryDx=0;entryDy=0;fontFamily=Helvetica;" edge="1" parent="1" source="9BZ9REHOYVfvkjWrIPJj-22" target="9BZ9REHOYVfvkjWrIPJj-23">
          <mxGeometry relative="1" as="geometry" />
        </mxCell>
        <mxCell id="9BZ9REHOYVfvkjWrIPJj-22" value="3x3 conv,128, /2" style="rounded=0;whiteSpace=wrap;html=1;fontFamily=Helvetica;rotation=-90;fillColor=#d5e8d4;strokeColor=#82b366;" vertex="1" parent="1">
          <mxGeometry x="407.5" y="157.5" width="127.5" height="22.5" as="geometry" />
        </mxCell>
        <mxCell id="9BZ9REHOYVfvkjWrIPJj-33" style="edgeStyle=orthogonalEdgeStyle;rounded=0;orthogonalLoop=1;jettySize=auto;html=1;exitX=0.5;exitY=1;exitDx=0;exitDy=0;entryX=0.5;entryY=0;entryDx=0;entryDy=0;fontFamily=Helvetica;" edge="1" parent="1" source="9BZ9REHOYVfvkjWrIPJj-23" target="9BZ9REHOYVfvkjWrIPJj-26">
          <mxGeometry relative="1" as="geometry" />
        </mxCell>
        <mxCell id="9BZ9REHOYVfvkjWrIPJj-23" value="3x3 conv,128" style="rounded=0;whiteSpace=wrap;html=1;fontFamily=Helvetica;rotation=-90;fillColor=#d5e8d4;strokeColor=#82b366;" vertex="1" parent="1">
          <mxGeometry x="447.5" y="157.5" width="127.5" height="22.5" as="geometry" />
        </mxCell>
        <mxCell id="9BZ9REHOYVfvkjWrIPJj-34" style="edgeStyle=orthogonalEdgeStyle;rounded=0;orthogonalLoop=1;jettySize=auto;html=1;exitX=0.5;exitY=1;exitDx=0;exitDy=0;entryX=0.5;entryY=0;entryDx=0;entryDy=0;fontFamily=Helvetica;" edge="1" parent="1" source="9BZ9REHOYVfvkjWrIPJj-26" target="9BZ9REHOYVfvkjWrIPJj-27">
          <mxGeometry relative="1" as="geometry" />
        </mxCell>
        <mxCell id="9BZ9REHOYVfvkjWrIPJj-26" value="3x3 conv,128" style="rounded=0;whiteSpace=wrap;html=1;fontFamily=Helvetica;rotation=-90;fillColor=#d5e8d4;strokeColor=#82b366;" vertex="1" parent="1">
          <mxGeometry x="487.5" y="157.5" width="127.5" height="22.5" as="geometry" />
        </mxCell>
        <mxCell id="9BZ9REHOYVfvkjWrIPJj-35" style="edgeStyle=orthogonalEdgeStyle;rounded=0;orthogonalLoop=1;jettySize=auto;html=1;exitX=0.5;exitY=1;exitDx=0;exitDy=0;entryX=0.5;entryY=0;entryDx=0;entryDy=0;fontFamily=Helvetica;" edge="1" parent="1" source="9BZ9REHOYVfvkjWrIPJj-27" target="9BZ9REHOYVfvkjWrIPJj-28">
          <mxGeometry relative="1" as="geometry" />
        </mxCell>
        <mxCell id="9BZ9REHOYVfvkjWrIPJj-27" value="3x3 conv,128" style="rounded=0;whiteSpace=wrap;html=1;fontFamily=Helvetica;rotation=-90;fillColor=#d5e8d4;strokeColor=#82b366;" vertex="1" parent="1">
          <mxGeometry x="530" y="157.5" width="127.5" height="22.5" as="geometry" />
        </mxCell>
        <mxCell id="9BZ9REHOYVfvkjWrIPJj-36" style="edgeStyle=orthogonalEdgeStyle;rounded=0;orthogonalLoop=1;jettySize=auto;html=1;exitX=0.5;exitY=1;exitDx=0;exitDy=0;entryX=0.5;entryY=0;entryDx=0;entryDy=0;fontFamily=Helvetica;" edge="1" parent="1" source="9BZ9REHOYVfvkjWrIPJj-28" target="9BZ9REHOYVfvkjWrIPJj-30">
          <mxGeometry relative="1" as="geometry" />
        </mxCell>
        <mxCell id="9BZ9REHOYVfvkjWrIPJj-28" value="3x3 conv,128" style="rounded=0;whiteSpace=wrap;html=1;fontFamily=Helvetica;rotation=-90;fillColor=#d5e8d4;strokeColor=#82b366;" vertex="1" parent="1">
          <mxGeometry x="570" y="157.5" width="127.5" height="22.5" as="geometry" />
        </mxCell>
        <mxCell id="9BZ9REHOYVfvkjWrIPJj-37" style="edgeStyle=orthogonalEdgeStyle;rounded=0;orthogonalLoop=1;jettySize=auto;html=1;exitX=0.5;exitY=1;exitDx=0;exitDy=0;entryX=0.5;entryY=0;entryDx=0;entryDy=0;fontFamily=Helvetica;" edge="1" parent="1" source="9BZ9REHOYVfvkjWrIPJj-30" target="9BZ9REHOYVfvkjWrIPJj-31">
          <mxGeometry relative="1" as="geometry" />
        </mxCell>
        <mxCell id="9BZ9REHOYVfvkjWrIPJj-30" value="3x3 conv,128" style="rounded=0;whiteSpace=wrap;html=1;fontFamily=Helvetica;rotation=-90;fillColor=#d5e8d4;strokeColor=#82b366;" vertex="1" parent="1">
          <mxGeometry x="610" y="157.5" width="127.5" height="22.5" as="geometry" />
        </mxCell>
        <mxCell id="9BZ9REHOYVfvkjWrIPJj-38" style="edgeStyle=orthogonalEdgeStyle;rounded=0;orthogonalLoop=1;jettySize=auto;html=1;exitX=0.5;exitY=1;exitDx=0;exitDy=0;entryX=0.5;entryY=0;entryDx=0;entryDy=0;fontFamily=Helvetica;" edge="1" parent="1" source="9BZ9REHOYVfvkjWrIPJj-31" target="9BZ9REHOYVfvkjWrIPJj-32">
          <mxGeometry relative="1" as="geometry" />
        </mxCell>
        <mxCell id="9BZ9REHOYVfvkjWrIPJj-31" value="3x3 conv,128" style="rounded=0;whiteSpace=wrap;html=1;fontFamily=Helvetica;rotation=-90;fillColor=#d5e8d4;strokeColor=#82b366;" vertex="1" parent="1">
          <mxGeometry x="650" y="157.5" width="127.5" height="22.5" as="geometry" />
        </mxCell>
        <mxCell id="9BZ9REHOYVfvkjWrIPJj-32" value="3x3 conv,128" style="rounded=0;whiteSpace=wrap;html=1;fontFamily=Helvetica;rotation=-90;fillColor=#d5e8d4;strokeColor=#82b366;" vertex="1" parent="1">
          <mxGeometry x="690" y="157.5" width="127.5" height="22.5" as="geometry" />
        </mxCell>
        <mxCell id="9BZ9REHOYVfvkjWrIPJj-52" style="edgeStyle=orthogonalEdgeStyle;rounded=0;orthogonalLoop=1;jettySize=auto;html=1;exitX=0.5;exitY=1;exitDx=0;exitDy=0;fontFamily=Helvetica;" edge="1" parent="1" source="9BZ9REHOYVfvkjWrIPJj-39">
          <mxGeometry relative="1" as="geometry">
            <mxPoint x="150" y="341" as="targetPoint" />
          </mxGeometry>
        </mxCell>
        <mxCell id="9BZ9REHOYVfvkjWrIPJj-39" value="3x3 conv, 256, /2" style="rounded=0;whiteSpace=wrap;html=1;fontFamily=Helvetica;rotation=-90;fillColor=#dae8fc;strokeColor=#6c8ebf;" vertex="1" parent="1">
          <mxGeometry x="62.5" y="330" width="127.5" height="22.5" as="geometry" />
        </mxCell>
        <mxCell id="9BZ9REHOYVfvkjWrIPJj-53" style="edgeStyle=orthogonalEdgeStyle;rounded=0;orthogonalLoop=1;jettySize=auto;html=1;exitX=0.5;exitY=1;exitDx=0;exitDy=0;entryX=0.5;entryY=0;entryDx=0;entryDy=0;fontFamily=Helvetica;" edge="1" parent="1" source="9BZ9REHOYVfvkjWrIPJj-40" target="9BZ9REHOYVfvkjWrIPJj-42">
          <mxGeometry relative="1" as="geometry" />
        </mxCell>
        <mxCell id="9BZ9REHOYVfvkjWrIPJj-40" value="3x3 conv, 256" style="rounded=0;whiteSpace=wrap;html=1;fontFamily=Helvetica;rotation=-90;fillColor=#dae8fc;strokeColor=#6c8ebf;" vertex="1" parent="1">
          <mxGeometry x="100" y="330" width="127.5" height="22.5" as="geometry" />
        </mxCell>
        <mxCell id="9BZ9REHOYVfvkjWrIPJj-54" style="edgeStyle=orthogonalEdgeStyle;rounded=0;orthogonalLoop=1;jettySize=auto;html=1;exitX=0.5;exitY=1;exitDx=0;exitDy=0;entryX=0.5;entryY=0;entryDx=0;entryDy=0;fontFamily=Helvetica;" edge="1" parent="1" source="9BZ9REHOYVfvkjWrIPJj-42" target="9BZ9REHOYVfvkjWrIPJj-43">
          <mxGeometry relative="1" as="geometry" />
        </mxCell>
        <mxCell id="9BZ9REHOYVfvkjWrIPJj-42" value="3x3 conv, 256" style="rounded=0;whiteSpace=wrap;html=1;fontFamily=Helvetica;rotation=-90;fillColor=#dae8fc;strokeColor=#6c8ebf;" vertex="1" parent="1">
          <mxGeometry x="140" y="330" width="127.5" height="22.5" as="geometry" />
        </mxCell>
        <mxCell id="9BZ9REHOYVfvkjWrIPJj-55" style="edgeStyle=orthogonalEdgeStyle;rounded=0;orthogonalLoop=1;jettySize=auto;html=1;exitX=0.5;exitY=1;exitDx=0;exitDy=0;fontFamily=Helvetica;" edge="1" parent="1" source="9BZ9REHOYVfvkjWrIPJj-43">
          <mxGeometry relative="1" as="geometry">
            <mxPoint x="270" y="341" as="targetPoint" />
          </mxGeometry>
        </mxCell>
        <mxCell id="9BZ9REHOYVfvkjWrIPJj-43" value="3x3 conv, 256" style="rounded=0;whiteSpace=wrap;html=1;fontFamily=Helvetica;rotation=-90;fillColor=#dae8fc;strokeColor=#6c8ebf;" vertex="1" parent="1">
          <mxGeometry x="180" y="330" width="127.5" height="22.5" as="geometry" />
        </mxCell>
        <mxCell id="9BZ9REHOYVfvkjWrIPJj-56" style="edgeStyle=orthogonalEdgeStyle;rounded=0;orthogonalLoop=1;jettySize=auto;html=1;exitX=0.5;exitY=1;exitDx=0;exitDy=0;entryX=0.5;entryY=0;entryDx=0;entryDy=0;fontFamily=Helvetica;" edge="1" parent="1" source="9BZ9REHOYVfvkjWrIPJj-44" target="9BZ9REHOYVfvkjWrIPJj-45">
          <mxGeometry relative="1" as="geometry" />
        </mxCell>
        <mxCell id="9BZ9REHOYVfvkjWrIPJj-44" value="3x3 conv, 256" style="rounded=0;whiteSpace=wrap;html=1;fontFamily=Helvetica;rotation=-90;fillColor=#dae8fc;strokeColor=#6c8ebf;" vertex="1" parent="1">
          <mxGeometry x="220" y="330" width="127.5" height="22.5" as="geometry" />
        </mxCell>
        <mxCell id="9BZ9REHOYVfvkjWrIPJj-57" style="edgeStyle=orthogonalEdgeStyle;rounded=0;orthogonalLoop=1;jettySize=auto;html=1;exitX=0.5;exitY=1;exitDx=0;exitDy=0;entryX=0.5;entryY=0;entryDx=0;entryDy=0;fontFamily=Helvetica;" edge="1" parent="1" source="9BZ9REHOYVfvkjWrIPJj-45" target="9BZ9REHOYVfvkjWrIPJj-46">
          <mxGeometry relative="1" as="geometry" />
        </mxCell>
        <mxCell id="9BZ9REHOYVfvkjWrIPJj-45" value="3x3 conv, 256" style="rounded=0;whiteSpace=wrap;html=1;fontFamily=Helvetica;rotation=-90;fillColor=#dae8fc;strokeColor=#6c8ebf;" vertex="1" parent="1">
          <mxGeometry x="260" y="330" width="127.5" height="22.5" as="geometry" />
        </mxCell>
        <mxCell id="9BZ9REHOYVfvkjWrIPJj-58" style="edgeStyle=orthogonalEdgeStyle;rounded=0;orthogonalLoop=1;jettySize=auto;html=1;exitX=0.5;exitY=1;exitDx=0;exitDy=0;entryX=0.5;entryY=0;entryDx=0;entryDy=0;fontFamily=Helvetica;" edge="1" parent="1" source="9BZ9REHOYVfvkjWrIPJj-46" target="9BZ9REHOYVfvkjWrIPJj-47">
          <mxGeometry relative="1" as="geometry" />
        </mxCell>
        <mxCell id="9BZ9REHOYVfvkjWrIPJj-46" value="3x3 conv, 256" style="rounded=0;whiteSpace=wrap;html=1;fontFamily=Helvetica;rotation=-90;fillColor=#dae8fc;strokeColor=#6c8ebf;" vertex="1" parent="1">
          <mxGeometry x="300" y="330" width="127.5" height="22.5" as="geometry" />
        </mxCell>
        <mxCell id="9BZ9REHOYVfvkjWrIPJj-63" style="edgeStyle=orthogonalEdgeStyle;rounded=0;orthogonalLoop=1;jettySize=auto;html=1;exitX=0.5;exitY=1;exitDx=0;exitDy=0;entryX=0.5;entryY=0;entryDx=0;entryDy=0;fontFamily=Helvetica;" edge="1" parent="1" source="9BZ9REHOYVfvkjWrIPJj-47" target="9BZ9REHOYVfvkjWrIPJj-48">
          <mxGeometry relative="1" as="geometry" />
        </mxCell>
        <mxCell id="9BZ9REHOYVfvkjWrIPJj-47" value="3x3 conv, 256" style="rounded=0;whiteSpace=wrap;html=1;fontFamily=Helvetica;rotation=-90;fillColor=#dae8fc;strokeColor=#6c8ebf;" vertex="1" parent="1">
          <mxGeometry x="340" y="330" width="127.5" height="22.5" as="geometry" />
        </mxCell>
        <mxCell id="9BZ9REHOYVfvkjWrIPJj-60" style="edgeStyle=orthogonalEdgeStyle;rounded=0;orthogonalLoop=1;jettySize=auto;html=1;exitX=0.5;exitY=1;exitDx=0;exitDy=0;entryX=0.5;entryY=0;entryDx=0;entryDy=0;fontFamily=Helvetica;" edge="1" parent="1" source="9BZ9REHOYVfvkjWrIPJj-48" target="9BZ9REHOYVfvkjWrIPJj-49">
          <mxGeometry relative="1" as="geometry" />
        </mxCell>
        <mxCell id="9BZ9REHOYVfvkjWrIPJj-48" value="3x3 conv, 256" style="rounded=0;whiteSpace=wrap;html=1;fontFamily=Helvetica;rotation=-90;fillColor=#dae8fc;strokeColor=#6c8ebf;" vertex="1" parent="1">
          <mxGeometry x="380" y="330" width="127.5" height="22.5" as="geometry" />
        </mxCell>
        <mxCell id="9BZ9REHOYVfvkjWrIPJj-61" style="edgeStyle=orthogonalEdgeStyle;rounded=0;orthogonalLoop=1;jettySize=auto;html=1;exitX=0.5;exitY=1;exitDx=0;exitDy=0;entryX=0.5;entryY=0;entryDx=0;entryDy=0;fontFamily=Helvetica;" edge="1" parent="1" source="9BZ9REHOYVfvkjWrIPJj-49" target="9BZ9REHOYVfvkjWrIPJj-50">
          <mxGeometry relative="1" as="geometry" />
        </mxCell>
        <mxCell id="9BZ9REHOYVfvkjWrIPJj-49" value="3x3 conv, 256" style="rounded=0;whiteSpace=wrap;html=1;fontFamily=Helvetica;rotation=-90;fillColor=#dae8fc;strokeColor=#6c8ebf;" vertex="1" parent="1">
          <mxGeometry x="420" y="330" width="127.5" height="22.5" as="geometry" />
        </mxCell>
        <mxCell id="9BZ9REHOYVfvkjWrIPJj-62" style="edgeStyle=orthogonalEdgeStyle;rounded=0;orthogonalLoop=1;jettySize=auto;html=1;exitX=0.5;exitY=1;exitDx=0;exitDy=0;entryX=0.5;entryY=0;entryDx=0;entryDy=0;fontFamily=Helvetica;" edge="1" parent="1" source="9BZ9REHOYVfvkjWrIPJj-50" target="9BZ9REHOYVfvkjWrIPJj-51">
          <mxGeometry relative="1" as="geometry" />
        </mxCell>
        <mxCell id="9BZ9REHOYVfvkjWrIPJj-50" value="3x3 conv, 256" style="rounded=0;whiteSpace=wrap;html=1;fontFamily=Helvetica;rotation=-90;fillColor=#dae8fc;strokeColor=#6c8ebf;" vertex="1" parent="1">
          <mxGeometry x="460" y="330" width="127.5" height="22.5" as="geometry" />
        </mxCell>
        <mxCell id="9BZ9REHOYVfvkjWrIPJj-51" value="3x3 conv, 256" style="rounded=0;whiteSpace=wrap;html=1;fontFamily=Helvetica;rotation=-90;fillColor=#dae8fc;strokeColor=#6c8ebf;" vertex="1" parent="1">
          <mxGeometry x="500" y="330" width="127.5" height="22.5" as="geometry" />
        </mxCell>
        <mxCell id="9BZ9REHOYVfvkjWrIPJj-71" style="edgeStyle=orthogonalEdgeStyle;rounded=0;orthogonalLoop=1;jettySize=auto;html=1;exitX=0.5;exitY=1;exitDx=0;exitDy=0;entryX=0.5;entryY=0;entryDx=0;entryDy=0;fontFamily=Helvetica;" edge="1" parent="1" source="9BZ9REHOYVfvkjWrIPJj-64" target="9BZ9REHOYVfvkjWrIPJj-65">
          <mxGeometry relative="1" as="geometry" />
        </mxCell>
        <mxCell id="9BZ9REHOYVfvkjWrIPJj-64" value="3x3 conv, 512, /2" style="rounded=0;whiteSpace=wrap;html=1;fontFamily=Helvetica;rotation=-90;fillColor=#e1d5e7;strokeColor=#9673a6;" vertex="1" parent="1">
          <mxGeometry x="62.5" y="490" width="127.5" height="22.5" as="geometry" />
        </mxCell>
        <mxCell id="9BZ9REHOYVfvkjWrIPJj-72" style="edgeStyle=orthogonalEdgeStyle;rounded=0;orthogonalLoop=1;jettySize=auto;html=1;exitX=0.5;exitY=1;exitDx=0;exitDy=0;entryX=0.5;entryY=0;entryDx=0;entryDy=0;fontFamily=Helvetica;" edge="1" parent="1" source="9BZ9REHOYVfvkjWrIPJj-65" target="9BZ9REHOYVfvkjWrIPJj-66">
          <mxGeometry relative="1" as="geometry" />
        </mxCell>
        <mxCell id="9BZ9REHOYVfvkjWrIPJj-65" value="3x3 conv, 512" style="rounded=0;whiteSpace=wrap;html=1;fontFamily=Helvetica;rotation=-90;fillColor=#e1d5e7;strokeColor=#9673a6;" vertex="1" parent="1">
          <mxGeometry x="100" y="490" width="127.5" height="22.5" as="geometry" />
        </mxCell>
        <mxCell id="9BZ9REHOYVfvkjWrIPJj-73" style="edgeStyle=orthogonalEdgeStyle;rounded=0;orthogonalLoop=1;jettySize=auto;html=1;exitX=0.5;exitY=1;exitDx=0;exitDy=0;entryX=0.5;entryY=0;entryDx=0;entryDy=0;fontFamily=Helvetica;" edge="1" parent="1" source="9BZ9REHOYVfvkjWrIPJj-66" target="9BZ9REHOYVfvkjWrIPJj-67">
          <mxGeometry relative="1" as="geometry" />
        </mxCell>
        <mxCell id="9BZ9REHOYVfvkjWrIPJj-66" value="3x3 conv, 512" style="rounded=0;whiteSpace=wrap;html=1;fontFamily=Helvetica;rotation=-90;fillColor=#e1d5e7;strokeColor=#9673a6;" vertex="1" parent="1">
          <mxGeometry x="140" y="490" width="127.5" height="22.5" as="geometry" />
        </mxCell>
        <mxCell id="9BZ9REHOYVfvkjWrIPJj-74" style="edgeStyle=orthogonalEdgeStyle;rounded=0;orthogonalLoop=1;jettySize=auto;html=1;exitX=0.5;exitY=1;exitDx=0;exitDy=0;entryX=0.5;entryY=0;entryDx=0;entryDy=0;fontFamily=Helvetica;" edge="1" parent="1" source="9BZ9REHOYVfvkjWrIPJj-67" target="9BZ9REHOYVfvkjWrIPJj-68">
          <mxGeometry relative="1" as="geometry" />
        </mxCell>
        <mxCell id="9BZ9REHOYVfvkjWrIPJj-67" value="3x3 conv, 512" style="rounded=0;whiteSpace=wrap;html=1;fontFamily=Helvetica;rotation=-90;fillColor=#e1d5e7;strokeColor=#9673a6;" vertex="1" parent="1">
          <mxGeometry x="180" y="490" width="127.5" height="22.5" as="geometry" />
        </mxCell>
        <mxCell id="9BZ9REHOYVfvkjWrIPJj-75" style="edgeStyle=orthogonalEdgeStyle;rounded=0;orthogonalLoop=1;jettySize=auto;html=1;exitX=0.5;exitY=1;exitDx=0;exitDy=0;entryX=0.5;entryY=0;entryDx=0;entryDy=0;fontFamily=Helvetica;" edge="1" parent="1" source="9BZ9REHOYVfvkjWrIPJj-68" target="9BZ9REHOYVfvkjWrIPJj-69">
          <mxGeometry relative="1" as="geometry" />
        </mxCell>
        <mxCell id="9BZ9REHOYVfvkjWrIPJj-68" value="3x3 conv, 512" style="rounded=0;whiteSpace=wrap;html=1;fontFamily=Helvetica;rotation=-90;fillColor=#e1d5e7;strokeColor=#9673a6;" vertex="1" parent="1">
          <mxGeometry x="220" y="490" width="127.5" height="22.5" as="geometry" />
        </mxCell>
        <mxCell id="9BZ9REHOYVfvkjWrIPJj-77" style="edgeStyle=orthogonalEdgeStyle;rounded=0;orthogonalLoop=1;jettySize=auto;html=1;exitX=0.5;exitY=1;exitDx=0;exitDy=0;entryX=0.5;entryY=0;entryDx=0;entryDy=0;fontFamily=Helvetica;" edge="1" parent="1" source="9BZ9REHOYVfvkjWrIPJj-69" target="9BZ9REHOYVfvkjWrIPJj-76">
          <mxGeometry relative="1" as="geometry" />
        </mxCell>
        <mxCell id="9BZ9REHOYVfvkjWrIPJj-69" value="3x3 conv, 512" style="rounded=0;whiteSpace=wrap;html=1;fontFamily=Helvetica;rotation=-90;fillColor=#e1d5e7;strokeColor=#9673a6;" vertex="1" parent="1">
          <mxGeometry x="260" y="490" width="127.5" height="22.5" as="geometry" />
        </mxCell>
        <mxCell id="9BZ9REHOYVfvkjWrIPJj-78" style="edgeStyle=orthogonalEdgeStyle;rounded=0;orthogonalLoop=1;jettySize=auto;html=1;exitX=0.5;exitY=1;exitDx=0;exitDy=0;fontFamily=Helvetica;" edge="1" parent="1" source="9BZ9REHOYVfvkjWrIPJj-76">
          <mxGeometry relative="1" as="geometry">
            <mxPoint x="410" y="501" as="targetPoint" />
          </mxGeometry>
        </mxCell>
        <mxCell id="9BZ9REHOYVfvkjWrIPJj-76" value="Avg pool" style="text;html=1;strokeColor=none;fillColor=none;align=center;verticalAlign=middle;whiteSpace=wrap;rounded=0;fontFamily=Helvetica;rotation=-90;" vertex="1" parent="1">
          <mxGeometry x="340" y="486.25" width="60" height="30" as="geometry" />
        </mxCell>
        <mxCell id="9BZ9REHOYVfvkjWrIPJj-79" value="FC 1000&lt;br&gt;" style="rounded=0;whiteSpace=wrap;html=1;fontFamily=Helvetica;rotation=-90;" vertex="1" parent="1">
          <mxGeometry x="367.5" y="490" width="117.5" height="20" as="geometry" />
        </mxCell>
      </root>
    </mxGraphModel>
  </diagram>
</mxfile>
